<svg xmlns="http://www.w3.org/2000/svg" viewBox="0 0 24 24">
  <g fill-rule="nonzero">
    <path d="M2.898 4.181l3.793 6.597c.362-1.578 1.401-2.92 2.777-3.645 1.17-.616 2.251-.579 3.925-.579 2.309-.001 6.57.002 9.293 0C18.82-1.03 8.476-2.31 2.898 4.181z"/>
    <path d="M11.997 8.01A3.992 3.992 0 008.008 12c0 2.201 1.79 3.99 3.989 3.99A3.994 3.994 0 0015.985 12c0-2.2-1.79-3.99-3.988-3.99z"/>
    <path d="M7.25 14.674c-1.094-1.89-3.99-6.932-5.303-9.225-4.608 7.062-.638 16.684 7.726 18.327l3.87-6.552c-2.238.664-4.858-.072-6.292-2.55z"/>
    <path d="M23.31 8.008l-7.61.001a5.463 5.463 0 011.008 6.719c-.95 1.64-3.988 6.766-5.46 9.247 8.618.531 14.9-7.914 12.062-15.967z"/>
  </g>
</svg>
