<svg xmlns="http://www.w3.org/2000/svg" viewBox="0 0 24 24">
  <path d="M22.39 8.049c-.506-1.216-1.53-2.528-2.334-2.943.655 1.282 1.033 2.57 1.178 3.53l.002.019c-1.315-3.278-3.544-4.6-5.365-7.477-.092-.145-.184-.291-.274-.445a3.544 3.544 0 01-.128-.24 2.117 2.117 0 01-.174-.46.03.03 0 00-.026-.031.039.039 0 00-.022 0l-.006.003-.008.004.005-.006c-2.586 1.514-3.658 4.166-3.933 5.853A6.196 6.196 0 009 6.444a.297.297 0 00-.147.37.292.292 0 00.396.17 5.621 5.621 0 012.008-.524l.068-.005a5.691 5.691 0 011.956.221l.094.03a5.814 5.814 0 01.616.23c.08.035.159.072.237.11l.107.055a5.832 5.832 0 01.37.211 5.952 5.952 0 012.033 2.104c-.62-.436-1.733-.867-2.804-.68 4.183 2.09 3.06 9.29-2.736 9.019a5.163 5.163 0 01-1.513-.292 6.41 6.41 0 01-.342-.14 4.413 4.413 0 01-.196-.093c-1.42-.734-2.592-2.121-2.739-3.806 0 0 .537-2 3.844-2 .357 0 1.38-.997 1.398-1.286-.004-.095-2.028-.9-2.817-1.677-.422-.416-.622-.616-.8-.766a3.47 3.47 0 00-.3-.228A5.387 5.387 0 017.7 4.625C6.505 5.17 5.576 6.03 4.9 6.788h-.005c-.46-.584-.428-2.51-.402-2.912-.005-.025-.344.176-.388.206-.407.29-.787.616-1.136.974-.398.403-.761.838-1.086 1.302v0A9.815 9.815 0 00.323 9.88c-.003.013-.111.486-.19 1.071-.014.091-.026.183-.037.274a7.8 7.8 0 00-.07.666c0 .012 0 .023-.002.034l-.023.387-.001.06C0 18.794 5.206 24 11.629 24c5.751 0 10.527-4.176 11.462-9.66.02-.149.035-.298.052-.448.232-1.994-.025-4.09-.754-5.843z" fill-rule="nonzero"/>
</svg>
