<svg xmlns="http://www.w3.org/2000/svg" viewBox="0 0 24 24">
  <g fill-rule="nonzero">
    <path d="M5.532 14.399v-.051a9.903 9.903 0 010-4.696v-.05C6.639 4.845 10.96 1.204 16.25.791A11.914 11.914 0 0012 0C5.383 0 0 5.383 0 12c0 6.616 5.383 12 12 12a11.9 11.9 0 004.248-.792c-5.288-.411-9.609-4.053-10.716-8.81z"/>
    <path d="M19.204 2.425a11.33 11.33 0 00-1.954-.175c-2.064 0-3.984.564-5.61 1.522.12-.007.239-.022.36-.022 3.727 0 6.75 3.693 6.75 8.25s-3.023 8.25-6.75 8.25c-.121 0-.24-.015-.36-.023a11.018 11.018 0 005.61 1.523c.668 0 1.32-.064 1.954-.175C22.11 19.38 24 15.912 24 12c0-3.912-1.89-7.381-4.796-9.575z"/>
  </g>
</svg>
