<svg xmlns="http://www.w3.org/2000/svg" viewBox="0 0 24 24">
  <g fill-rule="nonzero">
    <path d="M21.7 18.6c-.2.3-.5.8-.7 1-.3.3-.5.6-.8.9-.6.6-1.2 1.1-1.9 1.5-2.5 1.5-5.6 2.1-8.2.4-.8-.5-1.4-1.1-2.1-2-1.2-1.8-1.8-3.9-1.2-6 .3-1.1.8-2.2 1.5-3v.4c0 4.2 4 7.6 9.1 7.6 1.2 0 2.5-.2 3.6-.6.3.1.5 0 .7-.2z"/>
    <path d="M13.4 8.9c-.2-.3-1.1-.3-1.5-.3-.6 0-1.1.1-1.6.4-2.2 1-3.9 3.2-4.5 5.5-.6 2.4-.1 4.8 1.3 6.9.5.8 1.2 1.4 2.1 2 .1.1.2.1.3.2.2.1.3.2.5.3-.6-.1-1.1-.2-1.7-.4-3.1-.9-5.7-3.2-7.1-6.2-.5-1.1-.8-2.2-1-3.4-.2-1-.3-2.4.1-3.4.7-1.7 2-2.9 3.7-3.6 1.7-.8 3.5-.9 5.2-.5 1.6.3 3.3 1.1 4.2 2.5z"/>
    <path d="M23.8 10.3c0 2.9-2.3 5-5.1 5.4-.7.1-1.5.1-2.2-.1-.3-.1-1.9-.4-1.9-.9 0-.1.1-.1.1-.2 1.2-1.5 1.1-3.7.2-5.3C13.4 6.5 10.3 5 7.3 5c-.7 0-1.4.1-2.1.2-1.1.2-2.1.8-3.1 1.4-.3.2-.7.5-1 .8C3 3.6 6.5.7 10.8.3c.4 0 .8-.1 1.2-.1 4.7 0 8.9 2.3 10.8 6l.2.1c.2.7.8 2 .8 4z"/>
  </g>
</svg>
